<svg width="249" height="26" viewBox="0 0 249 26" fill="none" xmlns="http://www.w3.org/2000/svg">
<path d="M0.575487 19.9046C0.429332 19.9046 0.292311 19.8498 0.164425 19.7401C0.0548083 19.6305 0 19.4934 0 19.3289C0 19.2558 0.0182694 19.1735 0.0548083 19.0821L6.65921 1.39826C6.71402 1.21548 6.8145 1.06012 6.96066 0.932171C7.12508 0.785948 7.34431 0.712836 7.61836 0.712836H10.6054C10.8795 0.712836 11.0895 0.785948 11.2357 0.932171C11.3819 1.06012 11.4915 1.21548 11.5646 1.39826L18.169 19.0821C18.1872 19.1735 18.1964 19.2558 18.1964 19.3289C18.1964 19.4934 18.1416 19.6305 18.0319 19.7401C17.9223 19.8498 17.7944 19.9046 17.6483 19.9046H15.2641C15.0083 19.9046 14.8165 19.8498 14.6886 19.7401C14.579 19.6122 14.5059 19.4934 14.4694 19.3837L13.1814 16.0389H5.04237L3.75437 19.3837C3.71783 19.4934 3.63562 19.6122 3.50773 19.7401C3.39812 19.8498 3.21542 19.9046 2.95965 19.9046H0.575487ZM6.00151 12.8859H12.2223L9.09818 4.41412L6.00151 12.8859Z" fill="#4A4B46"/>
<path d="M21.0836 19.9046C20.901 19.9046 20.7457 19.8407 20.6178 19.7127C20.4899 19.5848 20.4259 19.4294 20.4259 19.2466V6.30588C20.4259 6.1231 20.4899 5.96774 20.6178 5.83979C20.7457 5.71185 20.901 5.64787 21.0836 5.64787H23.3308C23.5135 5.64787 23.6688 5.71185 23.7967 5.83979C23.9245 5.96774 23.9885 6.1231 23.9885 6.30588V7.42997C24.4635 6.84508 25.0664 6.36071 25.7972 5.97688C26.5462 5.57476 27.4688 5.37371 28.565 5.37371C29.6794 5.37371 30.6477 5.6296 31.4698 6.14138C32.2919 6.63488 32.9222 7.33858 33.3607 8.25248C33.8174 9.16637 34.0458 10.263 34.0458 11.5425V19.2466C34.0458 19.4294 33.9819 19.5848 33.854 19.7127C33.7261 19.8407 33.5708 19.9046 33.3881 19.9046H30.9765C30.7939 19.9046 30.6386 19.8407 30.5107 19.7127C30.3828 19.5848 30.3188 19.4294 30.3188 19.2466V11.707C30.3188 10.6469 30.0539 9.81524 29.5241 9.21207C29.0126 8.6089 28.2635 8.30731 27.277 8.30731C26.327 8.30731 25.5688 8.6089 25.0024 9.21207C24.4361 9.81524 24.1529 10.6469 24.1529 11.707V19.2466C24.1529 19.4294 24.089 19.5848 23.9611 19.7127C23.8332 19.8407 23.6779 19.9046 23.4952 19.9046H21.0836Z" fill="#4A4B46"/>
<path d="M41.6648 20.1788C40.7148 20.1788 39.8561 19.996 39.0888 19.6305C38.3215 19.2466 37.7095 18.744 37.2527 18.1226C36.8143 17.4828 36.595 16.77 36.595 15.984C36.595 14.7046 37.1066 13.6902 38.1297 12.9408C39.171 12.1731 40.5412 11.6613 42.2403 11.4054L45.9947 10.8571V10.2813C45.9947 9.51365 45.8028 8.91962 45.4192 8.49923C45.0355 8.07884 44.3778 7.86864 43.4461 7.86864C42.7884 7.86864 42.2494 8.00573 41.8292 8.27989C41.4273 8.53578 41.1259 8.88307 40.9249 9.32174C40.7787 9.55935 40.5686 9.67815 40.2946 9.67815H38.1297C37.9287 9.67815 37.7734 9.62332 37.6638 9.51365C37.5725 9.40399 37.5268 9.25776 37.5268 9.07498C37.5451 8.78254 37.6638 8.42612 37.883 8.00573C38.1023 7.58533 38.4494 7.18322 38.9244 6.79938C39.3994 6.39727 40.0114 6.05913 40.7605 5.78496C41.5095 5.51079 42.4139 5.37371 43.4735 5.37371C44.6245 5.37371 45.5927 5.51993 46.3783 5.81238C47.1822 6.08654 47.8216 6.46124 48.2966 6.93647C48.7716 7.41169 49.1187 7.96917 49.338 8.6089C49.5572 9.24862 49.6668 9.92491 49.6668 10.6377V19.2466C49.6668 19.4294 49.6029 19.5848 49.475 19.7127C49.3471 19.8407 49.1918 19.9046 49.0091 19.9046H46.7894C46.5884 19.9046 46.424 19.8407 46.2961 19.7127C46.1865 19.5848 46.1317 19.4294 46.1317 19.2466V18.1774C45.8942 18.5247 45.5745 18.8537 45.1725 19.1644C44.7706 19.4568 44.2773 19.7036 43.6927 19.9046C43.1264 20.0874 42.4504 20.1788 41.6648 20.1788ZM42.5966 17.5742C43.236 17.5742 43.8115 17.4371 44.323 17.163C44.8528 16.8888 45.2639 16.4684 45.5562 15.9018C45.8668 15.3169 46.0221 14.5858 46.0221 13.7084V13.1327L43.2817 13.5714C42.2038 13.7359 41.3999 14.0009 40.8701 14.3664C40.3403 14.732 40.0754 15.1798 40.0754 15.7099C40.0754 16.112 40.1941 16.4593 40.4316 16.7517C40.6874 17.0259 41.0071 17.2361 41.3908 17.3823C41.7744 17.5102 42.1764 17.5742 42.5966 17.5742Z" fill="#4A4B46"/>
<path d="M53.8676 19.9046C53.6849 19.9046 53.5296 19.8407 53.4017 19.7127C53.2738 19.5848 53.2099 19.4294 53.2099 19.2466V1.09667C53.2099 0.913893 53.2738 0.758531 53.4017 0.630586C53.5296 0.50264 53.6849 0.438667 53.8676 0.438667H56.1421C56.3248 0.438667 56.4801 0.50264 56.608 0.630586C56.7359 0.758531 56.7998 0.913893 56.7998 1.09667V19.2466C56.7998 19.4294 56.7359 19.5848 56.608 19.7127C56.4801 19.8407 56.3248 19.9046 56.1421 19.9046H53.8676Z" fill="#4A4B46"/>
<path d="M63.0109 25.1139C62.8648 25.1139 62.7369 25.059 62.6273 24.9494C62.5177 24.8397 62.4629 24.7117 62.4629 24.5655C62.4629 24.4924 62.4629 24.4193 62.4629 24.3462C62.4811 24.2914 62.5177 24.2182 62.5725 24.1268L64.71 19.0547L59.4484 6.63488C59.3753 6.4521 59.3388 6.32416 59.3388 6.25105C59.357 6.08654 59.421 5.94946 59.5306 5.83979C59.6402 5.71185 59.7772 5.64787 59.9417 5.64787H62.1614C62.3806 5.64787 62.5451 5.70271 62.6547 5.81238C62.7643 5.92204 62.8465 6.04085 62.9013 6.16879L66.5461 15.1341L70.3004 6.16879C70.3552 6.02257 70.4375 5.90377 70.5471 5.81238C70.6567 5.70271 70.8211 5.64787 71.0404 5.64787H73.2327C73.3788 5.64787 73.5067 5.70271 73.6163 5.81238C73.7442 5.92204 73.8082 6.04999 73.8082 6.19621C73.8082 6.30588 73.7716 6.4521 73.6986 6.63488L65.9432 24.5929C65.8701 24.7392 65.7788 24.858 65.6691 24.9494C65.5595 25.059 65.3951 25.1139 65.1759 25.1139H63.0109Z" fill="#4A4B46"/>
<path d="M82.6109 19.9046C81.5147 19.9046 80.5921 19.7127 79.8431 19.3289C79.094 18.9451 78.5368 18.3784 78.1714 17.629C77.806 16.8614 77.6233 15.9109 77.6233 14.7777V8.55406H75.4584C75.2757 8.55406 75.1204 8.49009 74.9925 8.36214C74.8647 8.2342 74.8007 8.07884 74.8007 7.89606V6.30588C74.8007 6.1231 74.8647 5.96774 74.9925 5.83979C75.1204 5.71185 75.2757 5.64787 75.4584 5.64787H77.6233V1.09667C77.6233 0.913893 77.6782 0.758531 77.7878 0.630586C77.9157 0.50264 78.0801 0.438667 78.281 0.438667H80.5008C80.6835 0.438667 80.8388 0.50264 80.9667 0.630586C81.0945 0.758531 81.1585 0.913893 81.1585 1.09667V5.64787H90.8516C91.0343 5.64787 91.1896 5.71185 91.3175 5.83979C91.4454 5.96774 91.5093 6.1231 91.5093 6.30588V7.89606C91.5093 8.07884 91.4454 8.2342 91.3175 8.36214C91.1896 8.49009 91.0343 8.55406 90.8516 8.55406H81.1585V14.5035C81.1585 15.2529 81.2864 15.8378 81.5421 16.2582C81.8162 16.6786 82.2821 16.8888 82.9398 16.8888H84.8306C85.0133 16.8888 85.1686 16.9528 85.2965 17.0807C85.4244 17.2087 85.4883 17.364 85.4883 17.5468V19.2466C85.4883 19.4294 85.4244 19.5848 85.2965 19.7127C85.1686 19.8407 85.0133 19.9046 84.8306 19.9046H82.6109Z" fill="#4A4B46"/>
<path d="M88.5771 19.9046C88.3944 19.9046 88.2391 19.8407 88.1112 19.7127C87.9833 19.5848 87.9194 19.4294 87.9194 19.2466V6.30588C87.9194 6.1231 87.9833 5.96774 88.1112 5.83979C88.2391 5.71185 88.3944 5.64787 88.5771 5.64787H90.8516C91.0526 5.64787 91.2079 5.71185 91.3175 5.83979C91.4454 5.96774 91.5093 6.1231 91.5093 6.30588V19.2466C91.5093 19.4294 91.4454 19.5848 91.3175 19.7127C91.2079 19.8407 91.0526 19.9046 90.8516 19.9046H88.5771Z" fill="#4A4B46"/>
<path d="M101.311 20.1788C99.9956 20.1788 98.8355 19.9321 97.8307 19.4386C96.8441 18.9451 96.0677 18.2322 95.5013 17.3C94.9533 16.3496 94.6518 15.2072 94.597 13.8729C94.5787 13.5988 94.5696 13.2423 94.5696 12.8037C94.5696 12.3467 94.5787 11.972 94.597 11.6796C94.6518 10.3453 94.9533 9.21207 95.5013 8.27989C96.0677 7.32944 96.8441 6.60747 97.8307 6.11396C98.8355 5.62046 99.9956 5.37371 101.311 5.37371C102.48 5.37371 103.476 5.53821 104.298 5.86721C105.12 6.19621 105.796 6.60747 106.326 7.10097C106.856 7.59447 107.249 8.11539 107.504 8.66373C107.778 9.19379 107.925 9.67816 107.943 10.1168C107.961 10.3179 107.897 10.4824 107.751 10.6103C107.623 10.72 107.468 10.7748 107.285 10.7748H104.874C104.691 10.7748 104.545 10.7291 104.435 10.6377C104.344 10.5464 104.252 10.4093 104.161 10.2265C103.887 9.49538 103.522 8.98359 103.065 8.69115C102.626 8.38042 102.06 8.22506 101.366 8.22506C100.452 8.22506 99.7216 8.51751 99.1735 9.1024C98.6437 9.66902 98.3605 10.5738 98.324 11.8167C98.2874 12.5112 98.2874 13.151 98.324 13.7359C98.3605 14.997 98.6437 15.9109 99.1735 16.4775C99.7216 17.0442 100.452 17.3275 101.366 17.3275C102.078 17.3275 102.654 17.1812 103.092 16.8888C103.531 16.5781 103.887 16.0571 104.161 15.326C104.252 15.1433 104.344 15.0062 104.435 14.9148C104.545 14.8234 104.691 14.7777 104.874 14.7777H107.285C107.468 14.7777 107.623 14.8417 107.751 14.9696C107.897 15.0793 107.961 15.2346 107.943 15.4357C107.925 15.7647 107.833 16.1394 107.669 16.5598C107.523 16.9619 107.276 17.3823 106.929 17.821C106.6 18.2414 106.18 18.6343 105.668 18.9999C105.157 19.3472 104.536 19.6305 103.805 19.8498C103.092 20.0692 102.261 20.1788 101.311 20.1788Z" fill="#4A4B46"/>
<path d="M114.939 20.1788C113.989 20.1788 113.13 19.996 112.363 19.6305C111.596 19.2466 110.983 18.744 110.527 18.1226C110.088 17.4828 109.869 16.77 109.869 15.984C109.869 14.7046 110.381 13.6902 111.404 12.9408C112.445 12.1731 113.815 11.6613 115.514 11.4054L119.269 10.8571V10.2813C119.269 9.51365 119.077 8.91962 118.693 8.49923C118.31 8.07884 117.652 7.86864 116.72 7.86864C116.062 7.86864 115.523 8.00573 115.103 8.27989C114.701 8.53578 114.4 8.88307 114.199 9.32174C114.053 9.55935 113.843 9.67815 113.569 9.67815H111.404C111.203 9.67815 111.047 9.62332 110.938 9.51365C110.846 9.40399 110.801 9.25776 110.801 9.07498C110.819 8.78254 110.938 8.42612 111.157 8.00573C111.376 7.58533 111.723 7.18322 112.198 6.79938C112.673 6.39727 113.285 6.05913 114.034 5.78496C114.784 5.51079 115.688 5.37371 116.747 5.37371C117.898 5.37371 118.867 5.51993 119.652 5.81238C120.456 6.08654 121.096 6.46124 121.571 6.93647C122.046 7.41169 122.393 7.96917 122.612 8.6089C122.831 9.24862 122.941 9.92491 122.941 10.6377V19.2466C122.941 19.4294 122.877 19.5848 122.749 19.7127C122.621 19.8407 122.466 19.9046 122.283 19.9046H120.063C119.862 19.9046 119.698 19.8407 119.57 19.7127C119.461 19.5848 119.406 19.4294 119.406 19.2466V18.1774C119.168 18.5247 118.848 18.8537 118.447 19.1644C118.045 19.4568 117.551 19.7036 116.967 19.9046C116.4 20.0874 115.724 20.1788 114.939 20.1788ZM115.871 17.5742C116.51 17.5742 117.085 17.4371 117.597 17.163C118.127 16.8888 118.538 16.4684 118.83 15.9018C119.141 15.3169 119.296 14.5858 119.296 13.7084V13.1327L116.556 13.5714C115.478 13.7359 114.674 14.0009 114.144 14.3664C113.614 14.732 113.349 15.1798 113.349 15.7099C113.349 16.112 113.468 16.4593 113.706 16.7517C113.961 17.0259 114.281 17.2361 114.665 17.3823C115.048 17.5102 115.45 17.5742 115.871 17.5742Z" fill="#4A4B46"/>
<path d="M127.142 19.9046C126.959 19.9046 126.804 19.8407 126.676 19.7127C126.548 19.5848 126.484 19.4294 126.484 19.2466V1.09667C126.484 0.913893 126.548 0.758531 126.676 0.630586C126.804 0.50264 126.959 0.438667 127.142 0.438667H129.416C129.599 0.438667 129.754 0.50264 129.882 0.630586C130.01 0.758531 130.074 0.913893 130.074 1.09667V19.2466C130.074 19.4294 130.01 19.5848 129.882 19.7127C129.754 19.8407 129.599 19.9046 129.416 19.9046H127.142Z" fill="#4A4B46"/>
<path d="M140.958 19.9046C140.775 19.9046 140.62 19.8407 140.492 19.7127C140.364 19.5848 140.3 19.4294 140.3 19.2466V1.39826C140.3 1.1972 140.364 1.0327 140.492 0.904755C140.62 0.776809 140.775 0.712836 140.958 0.712836H153.016C153.217 0.712836 153.381 0.776809 153.509 0.904755C153.637 1.0327 153.701 1.1972 153.701 1.39826V3.20777C153.701 3.39055 153.637 3.54591 153.509 3.67386C153.381 3.8018 153.217 3.86578 153.016 3.86578H144V8.71856H152.413C152.614 8.71856 152.778 8.78254 152.906 8.91048C153.034 9.02015 153.098 9.17551 153.098 9.37657V11.0764C153.098 11.2775 153.034 11.442 152.906 11.5699C152.778 11.6796 152.614 11.7344 152.413 11.7344H144V16.7517H153.235C153.436 16.7517 153.6 16.8157 153.728 16.9436C153.856 17.0716 153.92 17.2361 153.92 17.4371V19.2466C153.92 19.4294 153.856 19.5848 153.728 19.7127C153.6 19.8407 153.436 19.9046 153.235 19.9046H140.958Z" fill="#4A4B46"/>
<path d="M157.676 19.9046C157.494 19.9046 157.338 19.8407 157.21 19.7127C157.082 19.5848 157.019 19.4294 157.019 19.2466V6.30588C157.019 6.1231 157.082 5.96774 157.21 5.83979C157.338 5.71185 157.494 5.64787 157.676 5.64787H159.923C160.106 5.64787 160.261 5.71185 160.389 5.83979C160.517 5.96774 160.581 6.1231 160.581 6.30588V7.42997C161.056 6.84508 161.659 6.36071 162.39 5.97688C163.139 5.57476 164.061 5.37371 165.158 5.37371C166.272 5.37371 167.24 5.6296 168.062 6.14138C168.885 6.63488 169.515 7.33858 169.953 8.25248C170.41 9.16637 170.638 10.263 170.638 11.5425V19.2466C170.638 19.4294 170.574 19.5848 170.447 19.7127C170.319 19.8407 170.163 19.9046 169.981 19.9046H167.569C167.386 19.9046 167.231 19.8407 167.103 19.7127C166.975 19.5848 166.911 19.4294 166.911 19.2466V11.707C166.911 10.6469 166.647 9.81524 166.117 9.21207C165.605 8.6089 164.856 8.30731 163.87 8.30731C162.92 8.30731 162.161 8.6089 161.595 9.21207C161.029 9.81524 160.746 10.6469 160.746 11.707V19.2466C160.746 19.4294 160.682 19.5848 160.554 19.7127C160.426 19.8407 160.271 19.9046 160.088 19.9046H157.676Z" fill="#4A4B46"/>
<path d="M180.559 25.9364C179.226 25.9364 178.13 25.7627 177.271 25.4154C176.412 25.0682 175.736 24.6478 175.243 24.1543C174.75 23.6608 174.393 23.1673 174.174 22.6738C173.973 22.1985 173.864 21.8238 173.845 21.5497C173.827 21.3669 173.882 21.2024 174.01 21.0562C174.156 20.9282 174.32 20.8642 174.503 20.8642H176.887C177.07 20.8642 177.216 20.9008 177.326 20.9739C177.435 21.0653 177.527 21.2207 177.6 21.44C177.709 21.6776 177.855 21.9335 178.038 22.2077C178.221 22.4818 178.495 22.7103 178.86 22.8931C179.244 23.0941 179.765 23.1947 180.422 23.1947C181.117 23.1947 181.701 23.0941 182.176 22.8931C182.651 22.692 183.007 22.3539 183.245 21.8787C183.501 21.4034 183.629 20.7454 183.629 19.9046V18.0403C183.19 18.5704 182.624 18.9999 181.93 19.3289C181.254 19.6579 180.413 19.8224 179.408 19.8224C178.422 19.8224 177.572 19.667 176.86 19.3563C176.147 19.0273 175.554 18.5795 175.079 18.0129C174.604 17.428 174.238 16.7426 173.982 15.9566C173.745 15.1707 173.608 14.3025 173.571 13.352C173.553 12.8585 173.553 12.365 173.571 11.8715C173.608 10.9576 173.745 10.1077 173.982 9.32174C174.22 8.53579 174.576 7.85036 175.051 7.26547C175.544 6.6623 176.147 6.19621 176.86 5.86721C177.572 5.53821 178.422 5.37371 179.408 5.37371C180.45 5.37371 181.327 5.57476 182.039 5.97688C182.752 6.36071 183.336 6.84508 183.793 7.42997V6.3333C183.793 6.13224 183.857 5.96774 183.985 5.83979C184.113 5.71185 184.268 5.64787 184.451 5.64787H186.67C186.853 5.64787 187.008 5.71185 187.136 5.83979C187.264 5.96774 187.328 6.13224 187.328 6.3333L187.356 19.5482C187.356 20.8642 187.109 21.9975 186.616 22.9479C186.122 23.8984 185.373 24.6295 184.369 25.1413C183.382 25.6713 182.112 25.9364 180.559 25.9364ZM180.422 16.9162C181.171 16.9162 181.774 16.7517 182.231 16.4227C182.688 16.0937 183.026 15.6642 183.245 15.1341C183.464 14.6041 183.592 14.0649 183.629 13.5165C183.647 13.2789 183.656 12.9773 183.656 12.6118C183.656 12.2462 183.647 11.9538 183.629 11.7344C183.592 11.1678 183.464 10.6286 183.245 10.1168C183.026 9.58677 182.688 9.15723 182.231 8.82823C181.774 8.48095 181.171 8.30731 180.422 8.30731C179.673 8.30731 179.07 8.48095 178.614 8.82823C178.157 9.15723 177.828 9.5959 177.627 10.1442C177.444 10.6926 177.335 11.2958 177.298 11.9538C177.262 12.3924 177.262 12.8402 177.298 13.2972C177.335 13.9369 177.444 14.5401 177.627 15.1067C177.828 15.655 178.157 16.0937 178.614 16.4227C179.07 16.7517 179.673 16.9162 180.422 16.9162Z" fill="#4A4B46"/>
<path d="M191.664 19.9046C191.481 19.9046 191.326 19.8407 191.198 19.7127C191.07 19.5848 191.006 19.4294 191.006 19.2466V6.30588C191.006 6.1231 191.07 5.96774 191.198 5.83979C191.326 5.71185 191.481 5.64787 191.664 5.64787H193.938C194.139 5.64787 194.295 5.71185 194.404 5.83979C194.532 5.96774 194.596 6.1231 194.596 6.30588V19.2466C194.596 19.4294 194.532 19.5848 194.404 19.7127C194.295 19.8407 194.139 19.9046 193.938 19.9046H191.664Z" fill="#4A4B46"/>
<path d="M198.89 19.9046C198.707 19.9046 198.552 19.8407 198.424 19.7127C198.296 19.5848 198.232 19.4294 198.232 19.2466V6.30588C198.232 6.1231 198.296 5.96774 198.424 5.83979C198.552 5.71185 198.707 5.64787 198.89 5.64787H201.137C201.319 5.64787 201.475 5.71185 201.603 5.83979C201.73 5.96774 201.794 6.1231 201.794 6.30588V7.42997C202.269 6.84508 202.872 6.36071 203.603 5.97688C204.352 5.57476 205.275 5.37371 206.371 5.37371C207.485 5.37371 208.454 5.6296 209.276 6.14138C210.098 6.63488 210.728 7.33858 211.167 8.25248C211.623 9.16637 211.852 10.263 211.852 11.5425V19.2466C211.852 19.4294 211.788 19.5848 211.66 19.7127C211.532 19.8407 211.377 19.9046 211.194 19.9046H208.782C208.6 19.9046 208.444 19.8407 208.317 19.7127C208.189 19.5848 208.125 19.4294 208.125 19.2466V11.707C208.125 10.6469 207.86 9.81524 207.33 9.21207C206.818 8.6089 206.069 8.30731 205.083 8.30731C204.133 8.30731 203.375 8.6089 202.808 9.21207C202.242 9.81524 201.959 10.6469 201.959 11.707V19.2466C201.959 19.4294 201.895 19.5848 201.767 19.7127C201.639 19.8407 201.484 19.9046 201.301 19.9046H198.89Z" fill="#4A4B46"/>
<path d="M221.471 20.1788C219.443 20.1788 217.836 19.5939 216.648 18.4241C215.461 17.2544 214.821 15.5911 214.73 13.4343C214.711 13.2515 214.702 13.023 214.702 12.7488C214.702 12.4564 214.711 12.2279 214.73 12.0634C214.803 10.6926 215.113 9.50451 215.662 8.49923C216.228 7.49394 217.004 6.72627 217.991 6.19621C218.977 5.64787 220.138 5.37371 221.471 5.37371C222.951 5.37371 224.193 5.68443 225.198 6.30588C226.203 6.90905 226.961 7.75897 227.473 8.85565C227.984 9.93405 228.24 11.1861 228.24 12.6118V13.1875C228.24 13.3703 228.176 13.5257 228.048 13.6536C227.92 13.7815 227.756 13.8455 227.555 13.8455H218.457C218.457 13.8455 218.457 13.8729 218.457 13.9278C218.457 13.9826 218.457 14.0283 218.457 14.0649C218.475 14.7046 218.594 15.2986 218.813 15.847C219.051 16.377 219.388 16.8065 219.827 17.1355C220.284 17.4645 220.823 17.629 221.444 17.629C221.955 17.629 222.385 17.5559 222.732 17.4097C223.079 17.2452 223.362 17.0624 223.581 16.8614C223.801 16.6603 223.956 16.4958 224.047 16.3679C224.212 16.1485 224.339 16.0206 224.431 15.984C224.54 15.9292 224.696 15.9018 224.897 15.9018H227.253C227.436 15.9018 227.582 15.9566 227.692 16.0663C227.82 16.176 227.875 16.313 227.856 16.4775C227.838 16.77 227.683 17.1264 227.39 17.5468C227.116 17.9672 226.715 18.3784 226.185 18.7806C225.655 19.1827 224.988 19.5208 224.184 19.795C223.399 20.0509 222.494 20.1788 221.471 20.1788ZM218.457 11.5425H224.513V11.4603C224.513 10.7474 224.394 10.126 224.157 9.5959C223.919 9.06584 223.572 8.64545 223.115 8.33473C222.659 8.024 222.111 7.86864 221.471 7.86864C220.832 7.86864 220.284 8.024 219.827 8.33473C219.37 8.64545 219.023 9.06584 218.786 9.5959C218.566 10.126 218.457 10.7474 218.457 11.4603V11.5425Z" fill="#4A4B46"/>
</svg>
